<svg xmlns="http://www.w3.org/2000/svg" xmlns:xlink="http://www.w3.org/1999/xlink" width="55" height="55" viewBox="0 0 55 55">
  <defs>
    <clipPath id="clip-path">
      <path id="path1341" d="M0-682.665H55v55H0Z" transform="translate(0 682.665)" fill="#0055b8"/>
    </clipPath>
  </defs>
  <g id="age-group" transform="translate(0 682.665)">
    <g id="g1337" transform="translate(0 -682.665)">
      <g id="g1339" transform="translate(0 0)" clip-path="url(#clip-path)">
        <g id="g1345" transform="translate(0 29.341)">
          <path id="path1347" d="M-47.425-165.717H-57.781a1.611,1.611,0,0,1-1.611-1.611v-7.281a5.072,5.072,0,0,1-3.452-4.8v-1.726a10.174,10.174,0,0,1,3-7.241,10.171,10.171,0,0,1,7.241-3,10.17,10.17,0,0,1,7.242,3,10.173,10.173,0,0,1,3,7.241v1.726a5.072,5.072,0,0,1-3.452,4.8v7.281A1.611,1.611,0,0,1-47.425-165.717Zm-8.744-3.223h7.133v-7.018a1.611,1.611,0,0,1,1.611-1.611,1.843,1.843,0,0,0,1.84-1.84v-1.726A6.972,6.972,0,0,0-47.64-186.1a6.969,6.969,0,0,0-4.963-2.056,6.969,6.969,0,0,0-4.962,2.055,6.972,6.972,0,0,0-2.056,4.963v1.726a1.843,1.843,0,0,0,1.84,1.84,1.611,1.611,0,0,1,1.611,1.611Z" transform="translate(62.844 191.377)" fill="#0055b8"/>
        </g>
        <g id="g1349" transform="translate(17.259 18.985)">
          <path id="path1351" d="M-47.425-391.007H-57.781a1.611,1.611,0,0,1-1.611-1.611v-12.459a5.072,5.072,0,0,1-3.452-4.8v-6.9A10.253,10.253,0,0,1-52.6-427.022a10.253,10.253,0,0,1,10.241,10.241v6.9a5.072,5.072,0,0,1-3.452,4.8v12.459A1.611,1.611,0,0,1-47.425-391.007Zm-8.744-3.223h7.133v-12.2a1.611,1.611,0,0,1,1.611-1.611,1.843,1.843,0,0,0,1.841-1.841v-6.9A7.026,7.026,0,0,0-52.6-423.8a7.026,7.026,0,0,0-7.018,7.018v6.9a1.843,1.843,0,0,0,1.84,1.841,1.611,1.611,0,0,1,1.611,1.611Z" transform="translate(62.844 427.022)" fill="#0055b8"/>
        </g>
        <g id="g1353" transform="translate(34.518 8.63)">
          <path id="path1355" d="M-47.425-509.184H-57.781a1.611,1.611,0,0,1-1.611-1.611V-528.43a5.045,5.045,0,0,1-1.968-1.222,5.1,5.1,0,0,1-1.483-3.58v-12.081A10.252,10.252,0,0,1-52.6-555.555a10.252,10.252,0,0,1,10.241,10.241v12.081a5.1,5.1,0,0,1-1.484,3.581,5.043,5.043,0,0,1-1.968,1.222V-510.8A1.611,1.611,0,0,1-47.425-509.184Zm-8.744-3.223h7.133V-529.78a1.611,1.611,0,0,1,1.611-1.611,1.828,1.828,0,0,0,1.3-.54,1.851,1.851,0,0,0,.539-1.3v-12.081a7.026,7.026,0,0,0-7.018-7.018,7.026,7.026,0,0,0-7.018,7.018v12.081a1.85,1.85,0,0,0,.539,1.3,1.829,1.829,0,0,0,1.3.54,1.611,1.611,0,0,1,1.611,1.611Z" transform="translate(62.844 555.555)" fill="#0055b8"/>
        </g>
        <g id="g1357" transform="translate(4.315 20.711)">
          <path id="path1359" d="M-67.63-20A5.933,5.933,0,0,1-61.7-14.074,5.933,5.933,0,0,1-67.63-8.148a5.933,5.933,0,0,1-5.926-5.926A5.933,5.933,0,0,1-67.63-20Zm0,8.63a2.706,2.706,0,0,0,2.7-2.7,2.707,2.707,0,0,0-2.7-2.7,2.707,2.707,0,0,0-2.7,2.7A2.706,2.706,0,0,0-67.63-11.37Z" transform="translate(73.556 20)" fill="#0055b8"/>
        </g>
        <g id="g1361" transform="translate(21.574 10.355)">
          <path id="path1363" d="M-67.63-20A5.933,5.933,0,0,1-61.7-14.074,5.933,5.933,0,0,1-67.63-8.148a5.933,5.933,0,0,1-5.926-5.926A5.933,5.933,0,0,1-67.63-20Zm0,8.63a2.706,2.706,0,0,0,2.7-2.7,2.707,2.707,0,0,0-2.7-2.7,2.707,2.707,0,0,0-2.7,2.7A2.706,2.706,0,0,0-67.63-11.37Z" transform="translate(73.556 20)" fill="#0055b8"/>
        </g>
        <g id="g1365" transform="translate(38.833 0)">
          <path id="path1367" d="M-67.63-20A5.933,5.933,0,0,1-61.7-14.074,5.933,5.933,0,0,1-67.63-8.148a5.933,5.933,0,0,1-5.926-5.926A5.933,5.933,0,0,1-67.63-20Zm0,8.63a2.706,2.706,0,0,0,2.7-2.7,2.707,2.707,0,0,0-2.7-2.7,2.707,2.707,0,0,0-2.7,2.7A2.706,2.706,0,0,0-67.63-11.37Z" transform="translate(73.556 20)" fill="#0055b8"/>
        </g>
      </g>
    </g>
  </g>
</svg>
