<svg xmlns="http://www.w3.org/2000/svg" xmlns:xlink="http://www.w3.org/1999/xlink" width="55" height="55" viewBox="0 0 55 55">
  <defs>
    <clipPath id="clip-path">
      <path id="path3855" d="M0-682.665H55v55H0Z" transform="translate(0 682.665)" fill="#0055b8"/>
    </clipPath>
  </defs>
  <g id="contract" transform="translate(0 682.665)">
    <g id="g3851" transform="translate(0 -682.665)">
      <g id="g3853" transform="translate(0 0)" clip-path="url(#clip-path)">
        <g id="g3859" transform="translate(28.091 6.445)">
          <path id="path3861" d="M-289.356-87.692h0a1.611,1.611,0,0,1,1.212.55,16.3,16.3,0,0,0,4.577,3.433,20.666,20.666,0,0,0,5.7,1.479,1.611,1.611,0,0,1,1.435,1.412c.081.681,1.833,16.776-12.128,24.733a1.611,1.611,0,0,1-1.6,0c-13.961-7.957-12.209-24.052-12.128-24.733a1.613,1.613,0,0,1,1.434-1.412,20.8,20.8,0,0,0,5.7-1.479,16.091,16.091,0,0,0,4.575-3.432A1.611,1.611,0,0,1-289.356-87.692Zm9.8,8.474a21.441,21.441,0,0,1-5.4-1.587,18.984,18.984,0,0,1-4.391-3.007,18.987,18.987,0,0,1-4.391,3.007,21.46,21.46,0,0,1-5.415,1.589c-.115,3.563.413,13.962,9.805,19.854C-280.065-65.2-279.474-75.666-279.56-79.218Z" transform="translate(302.393 87.692)" fill="#0055b8"/>
        </g>
        <g id="g3863" transform="translate(35.398 17.237)">
          <path id="path3865" d="M-14.43-47.647a1.611,1.611,0,0,1-1.139-.472l-3.959-3.959a1.611,1.611,0,0,1,0-2.279,1.611,1.611,0,0,1,2.279,0l2.732,2.732,4.913-5.7a1.611,1.611,0,0,1,2.273-.168,1.611,1.611,0,0,1,.168,2.273l-6.046,7.011a1.611,1.611,0,0,1-1.161.558Z" transform="translate(20 57.88)" fill="#0055b8"/>
        </g>
        <g id="g3867" transform="translate(39.516 35.041)">
          <path id="path3869" d="M-18.389-90.221A1.611,1.611,0,0,1-20-91.833v-6.436a1.611,1.611,0,0,1,1.611-1.611,1.611,1.611,0,0,1,1.611,1.611v6.436A1.611,1.611,0,0,1-18.389-90.221Z" transform="translate(20 99.88)" fill="#0055b8"/>
        </g>
        <g id="g3871" transform="translate(0.844 0)">
          <path id="path3873" d="M-342.151-607.665h-28.37a1.611,1.611,0,0,1-1.611-1.611v-51.777a1.611,1.611,0,0,1,1.611-1.611h38.672a1.611,1.611,0,0,1,1.611,1.611v6.445A1.611,1.611,0,0,1-331.849-653a1.611,1.611,0,0,1-1.611-1.611v-4.834H-368.91v48.555h26.759a1.611,1.611,0,0,1,1.611,1.611A1.611,1.611,0,0,1-342.151-607.665Z" transform="translate(372.132 662.665)" fill="#0055b8"/>
        </g>
        <g id="g3875" transform="translate(29.215 41.477)">
          <path id="path3877" d="M-18.389-134.33A1.611,1.611,0,0,1-20-135.941v-10.3a1.611,1.611,0,0,1,1.611-1.611h10.3a1.611,1.611,0,0,1,1.611,1.611,1.611,1.611,0,0,1-1.611,1.611h-8.69v8.689A1.611,1.611,0,0,1-18.389-134.33Z" transform="translate(20 147.853)" fill="#0055b8"/>
        </g>
        <g id="g3879" transform="translate(29.215 41.476)">
          <path id="path3881" d="M-146.247-6.476a1.606,1.606,0,0,1-1.139-.472,1.611,1.611,0,0,1,0-2.279l10.3-10.3a1.611,1.611,0,0,1,2.279,0,1.611,1.611,0,0,1,0,2.279l-10.3,10.3A1.606,1.606,0,0,1-146.247-6.476Z" transform="translate(147.858 20)" fill="#0055b8"/>
        </g>
        <path id="path3883" d="M98.538-593H92.092a1.611,1.611,0,0,1-1.611-1.611v-6.445a1.611,1.611,0,0,1,1.611-1.611h6.445a1.611,1.611,0,0,1,1.611,1.611v6.445A1.611,1.611,0,0,1,98.538-593ZM93.7-596.22h3.223v-3.223H93.7Z" transform="translate(-83.191 609.11)" fill="#0055b8"/>
        <path id="path3885" d="M98.538-433H92.092a1.611,1.611,0,0,1-1.611-1.611v-6.445a1.611,1.611,0,0,1,1.611-1.611h6.445a1.611,1.611,0,0,1,1.611,1.611v6.445A1.611,1.611,0,0,1,98.538-433ZM93.7-436.22h3.223v-3.223H93.7Z" transform="translate(-83.191 462.001)" fill="#0055b8"/>
        <path id="path3887" d="M98.538-273H92.092a1.611,1.611,0,0,1-1.611-1.611v-6.445a1.611,1.611,0,0,1,1.611-1.611h6.445a1.611,1.611,0,0,1,1.611,1.611v6.445A1.611,1.611,0,0,1,98.538-273ZM93.7-276.221h3.223v-3.223H93.7Z" transform="translate(-83.191 314.892)" fill="#0055b8"/>
      </g>
    </g>
  </g>
</svg>
