<svg xmlns="http://www.w3.org/2000/svg" width="55" height="55" viewBox="0 0 55 55">
  <path id="face-scanner" d="M49.142,57h5.893A1.965,1.965,0,0,0,57,55.036V49.143a1.964,1.964,0,1,0-3.929,0v3.929H49.142a1.964,1.964,0,0,0,0,3.929ZM9.856,53.071H5.928V49.143a1.964,1.964,0,1,0-3.929,0v5.893A1.965,1.965,0,0,0,3.964,57H9.856a1.964,1.964,0,0,0,0-3.929ZM29.5,42.6a15.276,15.276,0,0,0,7.293-1.837,9.552,9.552,0,0,1,4.492-1.438,2.708,2.708,0,0,1,1.53.98,9.6,9.6,0,0,1,2.4,6.877,1.964,1.964,0,1,0,3.929,0c0-5.449-2.383-8.908-4.543-10.519a5.768,5.768,0,0,0-3.314-1.267,11.413,11.413,0,0,0-5.213,1.346c-1.744.837-3.483,1.929-6.572,1.929a1.964,1.964,0,0,0,0,3.929ZM17.37,39.514a.655.655,0,0,1,.522-.09c.224.116.564.283.766.4.776.471,1.558,1,2.169,1.281a1.965,1.965,0,0,0,1.63-3.575c-.629-.285-1.452-.9-2.241-1.346a5.473,5.473,0,0,0-2.5-.8,5.67,5.67,0,0,0-3.363,1.379A13.264,13.264,0,0,0,9.856,47.179a1.964,1.964,0,1,0,3.929,0,9.847,9.847,0,0,1,2.43-6.8,8.2,8.2,0,0,1,1.155-.868ZM15.845,19.679H7.892a1.964,1.964,0,0,0,0,3.929H16.7a21.339,21.339,0,0,0,4.245,7.6c2.294,2.565,5.168,4.188,8.228,4.188S35.107,33.77,37.4,31.2a21.4,21.4,0,0,0,4.245-7.6h9.46a1.964,1.964,0,0,0,0-3.929H42.5a16.086,16.086,0,0,0,.1-1.719c0-7.751-6.042-14-13.424-14s-13.422,6.244-13.422,14a16.087,16.087,0,0,0,.1,1.719Zm22.7,0a12.615,12.615,0,0,0,.122-1.719c0-5.529-4.227-10.067-9.5-10.067S19.678,12.43,19.678,17.96a12.929,12.929,0,0,0,.12,1.719h9.7a1.964,1.964,0,0,1,0,3.929H20.85a16.989,16.989,0,0,0,3.019,4.979c1.5,1.676,3.3,2.878,5.3,2.878s3.8-1.2,5.3-2.878a16.952,16.952,0,0,0,3.021-4.979h-.138a1.964,1.964,0,0,1,0-3.929Zm10.6-13.75H53.07V9.857a1.964,1.964,0,1,0,3.929,0V3.964A1.965,1.965,0,0,0,55.035,2H49.142a1.964,1.964,0,0,0,0,3.929ZM9.856,2H3.963A1.965,1.965,0,0,0,2,3.964V9.857a1.964,1.964,0,1,0,3.929,0V5.929H9.856A1.964,1.964,0,0,0,9.856,2Z" transform="translate(-1.999 -2)" fill="#0055b8" fill-rule="evenodd"/>
</svg>
