<svg xmlns="http://www.w3.org/2000/svg" width="55" height="55" viewBox="0 0 55 55">
  <path id="fingerprint" d="M13.553,24.818v15.9a13.969,13.969,0,0,0,6.959,12.055,1.988,1.988,0,0,1-1.991,3.443,17.961,17.961,0,0,1-8.944-15.5v-15.9a1.988,1.988,0,0,1,3.976,0ZM3.613,36.269A1.988,1.988,0,0,0,5.6,34.281V25.544c0-10.509,7.877-19.251,17.933-19.9A19.285,19.285,0,0,1,34.425,8.17a1.987,1.987,0,0,0,1.991-3.44A23.178,23.178,0,0,0,23.278,1.674C11.136,2.461,1.625,12.945,1.625,25.544v8.737A1.988,1.988,0,0,0,3.613,36.269Zm53.012,7.1A13.253,13.253,0,1,1,43.372,30.119,13.253,13.253,0,0,1,56.625,43.372ZM49.61,38.9a1.325,1.325,0,0,0-1.874,0l-6.131,6.132-2.6-2.6a1.325,1.325,0,0,0-1.874,1.874l3.535,3.535a1.325,1.325,0,0,0,1.874,0l7.068-7.069a1.325,1.325,0,0,0,0-1.874ZM40.035,25.134c-.127-7.979-6.1-14.759-13.727-15.487a15.163,15.163,0,0,0-13.683,6.025A1.987,1.987,0,1,0,15.8,18.059a11.245,11.245,0,0,1,10.126-4.454c5.693.544,10.152,5.718,10.152,11.781v.927a18.4,18.4,0,0,1,3.953-1.18Zm-7.928,3.529V25.1a7.5,7.5,0,0,0-6.08-7.474,7.293,7.293,0,0,0-8.5,7.191v10.6A23.209,23.209,0,0,0,29.605,55.767a18.477,18.477,0,0,1-4.489-9.175A19.089,19.089,0,0,1,21.5,35.42v-10.6a3.318,3.318,0,0,1,3.885-3.267,3.5,3.5,0,0,1,2.741,3.55v7.717a18.692,18.692,0,0,1,3.976-4.155ZM42.19,12.494a1.99,1.99,0,0,0-.726,2.717,19.21,19.21,0,0,1,2.57,9.607v.033a18.474,18.474,0,0,1,3.976.577v-.611a23.189,23.189,0,0,0-3.1-11.6,1.99,1.99,0,0,0-2.717-.726Z" transform="translate(-1.625 -1.625)" fill="#0055b8"/>
</svg>
