<svg xmlns="http://www.w3.org/2000/svg" width="55.15" height="55.149" viewBox="0 0 55.15 55.149">
  <g id="innovation" transform="translate(-1.25 -1.25)">
    <path id="Path_175" data-name="Path 175" d="M24.629,14.75a1.924,1.924,0,0,1,0,3.848H6.674a1.924,1.924,0,0,1,0-3.848Z" transform="translate(5.478 21.129)" fill="#0055b8" fill-rule="evenodd"/>
    <path id="Path_176" data-name="Path 176" d="M8.174,25.1a1.924,1.924,0,0,1,0-3.848h10.26a1.924,1.924,0,1,1,0,3.848Z" transform="translate(7.825 31.302)" fill="#0055b8" fill-rule="evenodd"/>
    <path id="Path_177" data-name="Path 177" d="M35.617,28a1.924,1.924,0,0,1,3.476,1.652,19.992,19.992,0,0,1-5.553,7.005.141.141,0,0,1-.023.018A3.16,3.16,0,0,0,32.3,39.09c0,.031,0,.059,0,.087-.082,1.17-.11,2.47-.128,3.2a4.468,4.468,0,0,1-.51,1.978l-1.688,3.224a4.491,4.491,0,0,1-3.976,2.406H16.269a4.491,4.491,0,0,1-3.976-2.406L10.6,44.356a4.468,4.468,0,0,1-.51-1.978l-.08-3.332a3.2,3.2,0,0,0-1.262-2.473.046.046,0,0,0-.018-.013A19.5,19.5,0,0,1,1.25,21.129a19.884,19.884,0,0,1,28.4-17.963A1.924,1.924,0,0,1,28,6.642,16.035,16.035,0,0,0,5.1,21.129a15.657,15.657,0,0,0,5.987,12.384,7.046,7.046,0,0,1,2.778,5.441l.077,3.335a.642.642,0,0,0,.074.282L15.7,45.8a.641.641,0,0,0,.567.344H25.99a.641.641,0,0,0,.567-.344l1.688-3.224a.642.642,0,0,0,.074-.282c.018-.764.049-2.114.131-3.3a7,7,0,0,1,2.686-5.333A16.1,16.1,0,0,0,35.617,28Z" transform="translate(0 0)" fill="#0055b8" fill-rule="evenodd"/>
    <path id="Path_178" data-name="Path 178" d="M6.314,13.033a1.923,1.923,0,0,1,2.719-2.719l5.053,5.051,5.053-5.051a1.923,1.923,0,1,1,2.719,2.719l-6.413,6.413a1.921,1.921,0,0,1-2.719,0Z" transform="translate(7.043 13.304)" fill="#0055b8" fill-rule="evenodd"/>
    <path id="Path_179" data-name="Path 179" d="M8.25,14.174a1.924,1.924,0,0,1,3.848,0v6.413a1.924,1.924,0,0,1-3.848,0Z" transform="translate(10.956 17.216)" fill="#0055b8" fill-rule="evenodd"/>
    <circle id="Ellipse_2" data-name="Ellipse 2" cx="3.848" cy="3.848" r="3.848" transform="translate(40.011 10.548)" fill="#0055b8"/>
    <path id="Path_180" data-name="Path 180" d="M29.45,2.645s.911,2.193.908,2.193a10.906,10.906,0,0,1,1.008.58l2.355-.308a1.929,1.929,0,0,1,1.7.644,13.206,13.206,0,0,1,2.532,4.384,1.924,1.924,0,0,1-.295,1.793s-1.442,1.885-1.442,1.883a10.975,10.975,0,0,1,0,1.162l1.442,1.885a1.924,1.924,0,0,1,.295,1.793,13.206,13.206,0,0,1-2.532,4.384,1.929,1.929,0,0,1-1.7.644s-2.355-.308-2.352-.31a10.688,10.688,0,0,1-1.008.582l-.911,2.193A1.919,1.919,0,0,1,28.045,27.3a13.138,13.138,0,0,1-5.063,0,1.919,1.919,0,0,1-1.406-1.149s-.911-2.193-.908-2.193a10.579,10.579,0,0,1-1.008-.58l-2.355.308a1.926,1.926,0,0,1-1.7-.644,13.119,13.119,0,0,1-2.532-4.384,1.93,1.93,0,0,1,.292-1.793s1.444-1.885,1.444-1.883a10.975,10.975,0,0,1,0-1.162l-1.444-1.885a1.93,1.93,0,0,1-.292-1.793,13.119,13.119,0,0,1,2.532-4.384,1.926,1.926,0,0,1,1.7-.644s2.355.308,2.352.31a10.374,10.374,0,0,1,1.008-.582l.911-2.193A1.919,1.919,0,0,1,22.981,1.5a13.138,13.138,0,0,1,5.063,0A1.919,1.919,0,0,1,29.45,2.645ZM26.316,5.134a9.074,9.074,0,0,0-1.606,0l-.78,1.875a1.923,1.923,0,0,1-1.041,1.039,6.824,6.824,0,0,0-1.562.9,1.932,1.932,0,0,1-1.421.382l-2.014-.264a9.166,9.166,0,0,0-.8,1.393l1.234,1.611A1.928,1.928,0,0,1,18.7,13.5a6.826,6.826,0,0,0,0,1.8,1.928,1.928,0,0,1-.38,1.424s-1.234,1.611-1.234,1.613a9.141,9.141,0,0,0,.8,1.39l2.014-.264a1.932,1.932,0,0,1,1.421.382,6.824,6.824,0,0,0,1.562.9,1.923,1.923,0,0,1,1.041,1.039l.78,1.875a8.836,8.836,0,0,0,1.606,0l.78-1.875a1.923,1.923,0,0,1,1.041-1.039,6.879,6.879,0,0,0,1.562-.9,1.932,1.932,0,0,1,1.421-.382l2.014.264a9.166,9.166,0,0,0,.8-1.393L32.7,16.72a1.928,1.928,0,0,1-.38-1.424,7.051,7.051,0,0,0,0-1.8,1.928,1.928,0,0,1,.38-1.424s1.234-1.611,1.234-1.613a9.361,9.361,0,0,0-.8-1.39l-2.014.264A1.932,1.932,0,0,1,29.7,8.95a6.879,6.879,0,0,0-1.562-.9A1.923,1.923,0,0,1,27.1,7.009Z" transform="translate(18.346 0)" fill="#0055b8" fill-rule="evenodd"/>
  </g>
</svg>
